<svg xmlns="http://www.w3.org/2000/svg" height="24px" viewBox="0 -960 960 960" width="24px" fill="#e3e3e3"><path d="M355.5-185.04q-58.19-25.04-101.81-68.65-43.61-43.62-68.65-101.99Q160-414.05 160-480q0-38.62 8.46-73.96 8.46-35.35 23.62-66.85 15.15-31.5 36.65-58.38 21.5-26.89 47.58-48.81l244.31 244.31-28.31 28.31-216-216q-31.54 35.23-53.93 82.03Q200-542.54 200-480q0 116 82 198t198 82q116 0 198-82t82-198q0-104.69-70.42-186.04-70.43-81.34-189.58-93.04V-680h-40v-120h20q65.95 0 124.32 25.04 58.37 25.04 101.99 68.65 43.61 43.62 68.65 101.99Q800-545.95 800-480q0 65.95-25.04 124.32-25.04 58.37-68.65 101.99-43.62 43.61-101.81 68.65Q546.31-160 480-160t-124.5-25.04Zm-97.46-273.05q-8.81-8.86-8.81-21.96 0-13.1 8.86-21.91t21.96-8.81q13.1 0 21.91 8.86t8.81 21.96q0 13.1-8.86 21.91t-21.96 8.81q-13.1 0-21.91-8.86Zm200 200q-8.81-8.86-8.81-21.96 0-13.1 8.86-21.91t21.96-8.81q13.1 0 21.91 8.86t8.81 21.96q0 13.1-8.86 21.91t-21.96 8.81q-13.1 0-21.91-8.86Zm200-200q-8.81-8.86-8.81-21.96 0-13.1 8.86-21.91t21.96-8.81q13.1 0 21.91 8.86t8.81 21.96q0 13.1-8.86 21.91t-21.96 8.81q-13.1 0-21.91-8.86Z"/></svg>